<svg width="68" height="79" viewBox="0 0 68 79" fill="none" xmlns="http://www.w3.org/2000/svg">
<mask id="mask0_41005_80" style="mask-type:luminance" maskUnits="userSpaceOnUse" x="0" y="0" width="68" height="79">
<path d="M0.1604 0.247803H67.7604V78.8117H0.1604V0.247803Z" fill="white"/>
</mask>
<g mask="url(#mask0_41005_80)">
<path d="M33.9708 78.8117V74.4506L0.1604 52.7253V57.0863L33.9708 78.8117ZM33.9708 48.1709V52.5593L47.3583 43.9464L43.9646 41.7659L33.9708 48.1709ZM34.025 0.247803V4.61095L67.8354 26.3342V21.9732L34.025 0.247803ZM34.025 30.8906V26.5002L20.6104 35.113L24.0333 37.2935L34.025 30.8906Z" fill="#4282B8"/>
</g>
<mask id="mask1_41005_80" style="mask-type:luminance" maskUnits="userSpaceOnUse" x="0" y="8" width="68" height="63">
<path d="M0.1604 8.80603H67.7604V70.0875H0.1604V8.80603Z" fill="white"/>
</mask>
<g mask="url(#mask1_41005_80)">
<path d="M33.9708 70.0602V65.6718L0.1604 43.9464V48.3348L33.9708 70.0602ZM33.9708 61.3108L54.175 48.3096L50.7791 46.1269L33.9708 56.9476V61.3108ZM34.025 8.99927V13.3876L67.8354 35.113V30.7225L34.025 8.99927ZM34.025 17.7487L13.7958 30.752L17.2166 32.9325L34.025 22.1118V17.7487Z" fill="black"/>
<path d="M33.9708 61.3108V56.9203L0.1604 35.197V39.5854L33.9708 61.3108ZM33.9708 70.0602L61.0187 52.6979L57.5979 50.488L33.9708 65.6991V70.0602ZM34.025 17.7487V22.1391L67.8354 43.8645V39.4761L34.025 17.7487ZM34.025 8.99927L6.97707 26.3636L10.3729 28.5714L34.025 13.3603V8.99927Z" fill="#4A4C4E"/>
</g>
<mask id="mask2_41005_80" style="mask-type:luminance" maskUnits="userSpaceOnUse" x="0" y="0" width="68" height="79">
<path d="M0.1604 0.247803H67.7604V78.8117H0.1604V0.247803Z" fill="white"/>
</mask>
<g mask="url(#mask2_41005_80)">
<path d="M33.9708 52.5593V48.1709L0.1604 26.4456V30.8339L33.9708 52.5593ZM33.9708 78.8117L67.8354 57.059L64.4146 54.8785L33.9708 74.4506V78.8117ZM34.025 26.5002V30.8906L67.8354 52.6139V48.2256L34.025 26.5002ZM34.025 0.247803L0.1604 22.0005L3.55623 24.181L34.025 4.61095V0.247803Z" fill="#B1C6DC"/>
</g>
</svg>
