<svg width="20" height="20" viewBox="0 0 20 20" fill="none" xmlns="http://www.w3.org/2000/svg">
<path d="M0.0516376 4.38575C0.141794 3.93161 0.343163 3.51602 0.624374 3.1727C0.68367 3.09789 0.745623 3.0309 0.812773 2.96391C1.31101 2.46321 2.01031 2.15086 2.77426 2.15086H17.2257C17.9897 2.15086 18.6865 2.46321 19.1871 2.96391C19.2541 3.0309 19.316 3.09789 19.3755 3.1727C19.6568 3.51598 19.8582 3.93161 19.9459 4.38575C19.9819 4.56102 20 4.74215 20 4.92528V15.075C20 15.4644 19.9174 15.8387 19.7702 16.1767C19.6336 16.4993 19.4321 16.7913 19.1871 17.0361C19.125 17.0981 19.0633 17.155 18.996 17.2116C18.5161 17.6091 17.8966 17.8491 17.2257 17.8491H2.77426C2.10316 17.8491 1.48097 17.6091 1.00383 17.2091C0.936716 17.155 0.874725 17.0981 0.812773 17.0361C0.56785 16.7913 0.366482 16.4993 0.227068 16.1767V16.1742C0.0798416 15.8362 3.8147e-05 15.4644 3.8147e-05 15.075V4.92528C-1.90735e-06 4.74215 0.017849 4.56102 0.0516376 4.38575ZM18.1832 3.96762C17.9354 3.72004 17.6025 3.57016 17.2257 3.57016H2.77426C2.39746 3.57016 2.06168 3.72004 1.81676 3.96762C1.77293 4.01172 1.73164 4.06086 1.69519 4.10969L9.26969 10.7111C9.47859 10.8941 9.73664 10.9846 10 10.9846C10.2607 10.9846 10.5186 10.8941 10.7303 10.7111L18.3019 4.10688C18.2684 4.05805 18.2271 4.01172 18.1832 3.96762ZM18.5807 15.075V5.57559L13.0993 10.3574L18.5779 15.1342C18.5807 15.1161 18.5807 15.0957 18.5807 15.075ZM2.77426 16.4296H17.2257C17.4711 16.4296 17.7007 16.3651 17.8966 16.2518L12.1162 11.2143L11.5766 11.6838C11.125 12.0762 10.5598 12.2749 10 12.2749C9.43726 12.2749 8.87219 12.0762 8.42062 11.6838L7.88125 11.2143L2.10312 16.2518C2.29933 16.3651 2.5289 16.4296 2.77426 16.4296ZM1.4193 15.075C1.4193 15.0957 1.4193 15.1161 1.42195 15.1342L6.90055 10.3602L1.4193 5.57813V15.075Z" fill="black"/>
</svg>
